HIERARCHY
ROOT Hips
{
	OFFSET 0.000000 8.830580 0.000000
	CHANNELS 6 Xposition Yposition Zposition Zrotation Yrotation Xrotation 
	JOINT Spine
	{
		OFFSET 0.000000 0.010000 0.000000
		CHANNELS 3 Zrotation Yrotation Xrotation
		JOINT Spine1
		{
			OFFSET 0.000000 2.459130 0.000000
			CHANNELS 3 Zrotation Yrotation Xrotation
			JOINT Neck
			{
				OFFSET 0.000000 2.484630 0.000000
				CHANNELS 3 Zrotation Yrotation Xrotation
				JOINT Head_virtual
				{
					OFFSET 0.000000 0.000000 0.000000
					CHANNELS 3 Zrotation Yrotation Xrotation
					JOINT Head
					{
						OFFSET 0.000000 0.927525 0.000000
						CHANNELS 3 Zrotation Yrotation Xrotation
						End Site
						{
							OFFSET 0.000000 0.000000 0.000000
						}
					}
				}
				JOINT LeftUpArm_virtual
				{
					OFFSET 0.000000 0.000000 0.000000
					CHANNELS 3 Zrotation Yrotation Xrotation
					JOINT LeftUpArm
					{
						OFFSET 1.248820 0.000000 0.000000
						CHANNELS 3 Zrotation Yrotation Xrotation
						JOINT LeftForeArm
						{
							OFFSET 2.597580 0.000000 0.000000
							CHANNELS 3 Zrotation Yrotation Xrotation
							JOINT LeftHand
							{
								OFFSET 2.455420 0.000000 0.000000
								CHANNELS 3 Zrotation Yrotation Xrotation
								End Site
								{
									OFFSET 0.000000 0.000000 0.000000
								}
							}
						}
					}
				}
				JOINT RightUpArm_virtual
				{
					OFFSET -0.000000 -0.000000 -0.000000
					CHANNELS 3 Zrotation Yrotation Xrotation
					JOINT RightUpArm
					{
						OFFSET -1.248820 -0.000000 -0.000000
						CHANNELS 3 Zrotation Yrotation Xrotation
						JOINT RightForeArm
						{
							OFFSET -2.597580 -0.000000 -0.000000
							CHANNELS 3 Zrotation Yrotation Xrotation
							JOINT RightHand
							{
								OFFSET -2.455420 -0.000000 -0.000000
								CHANNELS 3 Zrotation Yrotation Xrotation
								End Site
								{
									OFFSET 0.000000 0.000000 0.000000
								}
							}
						}
					}
				}
			}
		}
	}
	JOINT LeftUpLeg
	{
		OFFSET 1.271939 0.000000 0.000000
		CHANNELS 3 Zrotation Yrotation Xrotation
		JOINT LeftLowLeg
		{
			OFFSET 0.000000 -4.342910 0.000000
			CHANNELS 3 Zrotation Yrotation Xrotation
			JOINT LeftFoot
			{
				OFFSET 0.000000 -4.487670 0.000000
				CHANNELS 3 Zrotation Yrotation Xrotation
				JOINT LeftToeBase
				{
					OFFSET 0.000000 0.000000 1.515070
					CHANNELS 3 Zrotation Yrotation Xrotation
					End Site
					{
						OFFSET 0.000000 0.000000 0.000000
					}
				}
			}
		}
	}
	JOINT RightUpLeg
	{
		OFFSET -1.271939 0.000000 0.000000
		CHANNELS 3 Zrotation Yrotation Xrotation
		JOINT RightLowLeg
		{
			OFFSET 0.000000 -4.342910 0.000000
			CHANNELS 3 Zrotation Yrotation Xrotation
			JOINT RightFoot
			{
				OFFSET 0.000000 -4.487670 0.000000
				CHANNELS 3 Zrotation Yrotation Xrotation
				JOINT RightToeBase
				{
					OFFSET 0.000000 0.000000 1.515070
					CHANNELS 3 Zrotation Yrotation Xrotation
					End Site
					{
						OFFSET 0.000000 0.000000 0.000000
					}
				}
			}
		}
	}
}
MOTION
Frames: 10
Frame Time: 0.041667
-15.580606 9.361355 39.505293 -176.869033 -5.491111 171.647367 4.846710 0.218820 -17.129230 6.372381 -3.550427 32.566410 0.000000 0.000000 0.000000 -7.172853 4.947630 12.341738 9.179865 -11.282602 -64.166947 -20.224400 1.722950 -17.716600 -1.682080 -19.589701 19.589500 0.000000 -55.233799 0.000000 11.187400 20.439899 58.214298 27.719500 1.576560 3.017130 33.626499 12.460900 12.204200 0.000000 28.006100 0.000000 -8.322430 -2.908380 -14.366500 7.420800 3.677880 2.824041 0.000000 0.000000 10.584400 -5.861730 0.423538 12.332922 0.000000 0.000000 -12.675170 13.138669 10.248965 8.091188 0.000000 0.000000 9.227790 15.473904 -31.925616 4.940121 0.000000 0.000000 -14.874974 
-15.565943 9.361072 39.506819 -176.876247 -5.368148 171.686159 4.886984 0.372204 -17.180374 5.801336 -3.656883 32.715908 0.000000 0.000000 0.000000 -7.160184 5.127624 11.876561 9.022719 -11.070974 -64.166770 -20.409800 1.665340 -17.427999 -2.250770 -19.566099 20.287800 0.000000 -59.342701 0.000000 12.296000 19.270700 57.615799 27.867399 1.674130 2.874710 34.320202 12.429700 12.832500 0.000000 27.938200 0.000000 -7.938790 -2.821740 -13.582600 7.508826 3.843328 2.869910 0.000000 0.000000 10.438300 -5.855949 0.413154 12.419008 0.000000 0.000000 -12.694980 13.241881 10.482497 8.051158 0.000000 0.000000 9.231330 15.510586 -32.030228 4.930301 0.000000 0.000000 -14.734866 
-15.550956 9.360261 39.510954 -176.905277 -5.063331 171.760334 4.954653 0.637087 -17.198396 5.180651 -3.709017 32.823979 0.000000 0.000000 0.000000 -7.179342 5.396215 11.497751 8.833179 -10.787128 -64.153674 -20.570400 1.595340 -17.190701 -2.722280 -19.747801 21.419300 0.000000 -63.550400 0.000000 14.053200 17.328600 57.569698 28.083300 1.744190 2.910690 34.933701 12.493400 13.283500 0.000000 27.862700 0.000000 -7.285920 -2.881610 -13.029300 7.606998 4.146254 2.869266 0.000000 0.000000 10.392500 -5.931852 0.387768 12.458070 0.000000 0.000000 -12.739400 13.104290 9.735513 8.020214 0.000000 0.000000 9.023910 14.961561 -31.224686 5.462147 0.000000 0.000000 -14.732325 
-15.536948 9.359514 39.515521 -176.930925 -4.747047 171.874445 5.017884 0.859201 -17.216497 4.599512 -3.765195 32.833268 0.000000 0.000000 0.000000 -7.312996 5.756708 11.233965 8.728024 -10.551344 -64.152612 -20.783701 1.477530 -16.786699 -3.008520 -20.081600 22.722799 0.000000 -67.608597 0.000000 16.141199 14.175200 57.569000 28.275600 1.691810 2.938010 35.526501 12.614800 14.280200 0.000000 27.534901 0.000000 -7.171890 -2.437210 -12.463100 7.684094 4.283561 2.749627 0.000000 0.000000 10.514400 -6.025041 0.488648 12.426249 0.000000 0.000000 -12.753470 13.072408 9.545769 7.934184 0.000000 0.000000 8.912360 14.653551 -30.842988 5.739708 0.000000 0.000000 -14.613318 
-15.523177 9.358763 39.519922 -176.925259 -4.372051 172.032509 5.080619 1.029810 -17.273677 4.110989 -3.824401 32.824165 0.000000 0.000000 0.000000 -7.541645 6.186507 11.047432 8.584367 -10.345061 -64.147711 -20.924601 1.355280 -16.446199 -3.479360 -20.625700 24.108801 0.000000 -71.574997 0.000000 17.984600 11.253700 57.409100 28.447201 1.737670 2.841580 36.084000 12.515600 15.180600 0.000000 27.320000 0.000000 -6.895080 -2.386720 -12.048000 7.780886 4.349749 2.533883 0.000000 0.000000 10.769300 -6.149782 0.693198 12.323726 0.000000 0.000000 -12.776520 13.108770 9.629161 7.811559 0.000000 0.000000 8.806420 14.468833 -30.608820 5.962455 0.000000 0.000000 -14.522396 
-15.509677 9.359284 39.525751 -176.919212 -3.959665 172.188133 5.057631 1.001498 -17.429048 3.817937 -3.929302 33.027713 0.000000 0.000000 0.000000 -8.054339 6.827871 10.673977 8.485894 -10.311316 -63.990002 -21.060699 1.203530 -16.337999 -4.127550 -21.268299 25.636801 0.000000 -75.378899 0.000000 19.830799 8.494170 57.135200 28.371401 1.907930 2.833370 36.773499 12.498900 15.729300 0.000000 27.070299 0.000000 -6.510820 -2.322160 -10.944000 7.876431 4.413194 2.293965 0.000000 0.000000 11.074800 -6.300205 0.924128 12.251008 0.000000 0.000000 -12.806280 13.124112 9.636808 7.707753 0.000000 0.000000 8.648480 14.187876 -30.297405 6.304064 0.000000 0.000000 -14.442220 
-15.496484 9.359602 39.531119 -176.921543 -3.430756 172.335334 5.038224 1.019996 -17.472058 3.603219 -3.972871 33.065593 0.000000 0.000000 0.000000 -8.597427 7.453461 10.489257 8.380555 -10.277439 -64.017219 -21.345200 0.919458 -16.028601 -4.368130 -22.000200 27.286800 0.000000 -78.970100 0.000000 21.462700 5.476730 59.888100 28.421301 1.852980 2.750040 37.289799 12.533300 16.443800 0.000000 26.738199 0.000000 -5.772780 -2.695840 -9.805240 7.977964 4.581734 2.099984 0.000000 0.000000 11.378900 -6.454681 1.170395 12.164457 0.000000 0.000000 -12.876590 13.094719 9.464571 7.670602 0.000000 0.000000 8.369140 13.764382 -29.782857 6.789585 0.000000 0.000000 -14.424174 
-15.485025 9.359659 39.537207 -176.971383 -2.874689 172.431579 5.085833 1.151915 -17.445638 3.104674 -4.064303 33.087034 0.000000 0.000000 0.000000 -9.056289 8.068534 10.287772 8.280510 -10.141559 -64.068271 -21.409100 0.569798 -15.639800 -4.643120 -22.907499 28.715700 0.000000 -82.329102 0.000000 23.120501 2.247990 60.054199 28.592501 1.626840 2.891080 37.793900 12.924600 17.114901 0.000000 26.228701 0.000000 -5.431340 -2.692360 -8.999480 8.024891 4.737317 1.950165 0.000000 0.000000 11.722900 -6.587076 1.447828 12.070942 0.000000 0.000000 -12.933210 13.093952 9.664321 7.749714 0.000000 0.000000 8.011020 13.485982 -29.542002 7.115569 0.000000 0.000000 -14.378054 
-15.473378 9.360251 39.541125 -176.977524 -2.288771 172.491848 5.159706 1.253326 -17.446307 2.564336 -4.205573 33.159141 0.000000 0.000000 0.000000 -9.493928 8.703825 10.098202 8.029293 -9.928415 -64.075377 -21.438700 0.211357 -15.245100 -4.737930 -23.899401 30.216000 0.000000 -85.651100 0.000000 24.593100 -0.629017 61.074600 28.791901 1.728990 3.176130 38.199902 12.936500 17.467800 0.000000 26.025000 0.000000 -5.314980 -2.946030 -8.725540 8.133621 4.950807 1.876393 0.000000 0.000000 12.021700 -6.726322 1.675780 11.976948 0.000000 0.000000 -13.011850 13.126049 9.787541 7.790033 0.000000 0.000000 7.815900 13.231263 -29.195910 7.441039 0.000000 0.000000 -14.293931 
-15.462868 9.360196 39.546007 -177.008998 -1.625975 172.566389 5.235655 1.370390 -17.398835 2.007249 -4.343837 33.206561 0.000000 0.000000 0.000000 -10.021080 9.396950 9.813727 7.872749 -9.770087 -64.142717 -21.313801 -0.096083 -15.010000 -5.164090 -25.077999 31.500000 0.000000 -88.733704 0.000000 24.996799 -3.150350 61.985001 28.959000 1.750950 2.636080 38.774502 12.556600 18.414900 0.000000 25.700800 0.000000 -5.014180 -3.130360 -8.423380 8.214614 5.237996 1.818426 0.000000 0.000000 12.304300 -6.839022 1.929247 11.867435 0.000000 0.000000 -13.089490 13.160125 10.112079 7.777555 0.000000 0.000000 7.730400 13.053682 -28.929928 7.630602 0.000000 0.000000 -14.201711 
